# MagicaVoxel @ Ephtracy

# group
o 

# material
mtllib grass.mtl
usemtl palette

# normals
vn -1 0 0
vn 1 0 0
vn 0 0 1
vn 0 0 -1
vn 0 -1 0
vn 0 1 0

# texcoords
vt 0.544922 0.5
vt 0.556641 0.5
vt 0.576172 0.5

# verts
v -0.9 2 0.6
v -0.9 2 0.4
v -0.9 2.2 0.6
v -0.9 2.2 0.4
v -0.8 2 -0.3
v -0.8 2 -0.5
v -0.8 2.2 -0.3
v -0.8 2.2 -0.5
v -0.7 2 0.8
v -0.7 2 0.6
v -0.7 2 0.4
v -0.7 2 0
v -0.7 2 -0.7
v -0.7 2 -0.9
v -0.7 2.2 0.8
v -0.7 2.2 0.6
v -0.7 2.2 0.4
v -0.7 2.2 0.2
v -0.7 2.2 0
v -0.7 2.2 -0.7
v -0.7 2.2 -0.9
v -0.7 2.4 0.6
v -0.7 2.4 0.4
v -0.7 2.4 0.2
v -0.7 2.4 -0.7
v -0.7 2.4 -0.9
v -0.7 2.6 0.6
v -0.7 2.6 0.4
v -0.5 2 -0.5
v -0.5 2 -0.7
v -0.5 2.2 -0.5
v -0.5 2.2 -0.7
v -0.5 2.4 -0.7
v -0.5 2.6 -0.5
v -0.5 2.6 -0.7
v -0.4 2 0.9
v -0.4 2 0.7
v -0.4 2.2 0.9
v -0.4 2.2 0.7
v -0.2 2 0.4
v -0.2 2 0.2
v -0.2 2 -0.1
v -0.2 2 -0.3
v -0.2 2.2 0.4
v -0.2 2.2 0.2
v -0.2 2.2 -0.1
v -0.2 2.2 -0.3
v -0.1 2 -0.6
v -0.1 2 -0.8
v -0.1 2.2 -0.6
v -0.1 2.2 -0.8
v 0.1 2 0.7
v 0.1 2 0.5
v 0.1 2 -0.3
v 0.1 2 -0.5
v 0.1 2.2 0.7
v 0.1 2.2 0.5
v 0.1 2.2 -0.3
v 0.1 2.2 -0.5
v 0.3 2 0.9
v 0.3 2 0.7
v 0.3 2 0.5
v 0.3 2 0.3
v 0.3 2 -0.1
v 0.3 2 -0.3
v 0.3 2 -0.5
v 0.3 2 -0.7
v 0.3 2.2 0.9
v 0.3 2.2 0.7
v 0.3 2.2 0.5
v 0.3 2.2 0.3
v 0.3 2.2 -0.1
v 0.3 2.2 -0.3
v 0.3 2.2 -0.5
v 0.3 2.2 -0.7
v 0.3 2.4 0.9
v 0.3 2.4 0.7
v 0.3 2.4 -0.1
v 0.3 2.4 -0.3
v 0.3 2.4 -0.5
v 0.3 2.6 0.7
v 0.3 2.6 0.5
v 0.3 2.6 -0.3
v 0.3 2.6 -0.5
v 0.5 2.6 0.7
v 0.5 2.6 0.5
v 0.5 2.8 0.7
v 0.5 2.8 0.5
v 0.7 2 0.4
v 0.7 2 0.2
v 0.7 2.2 0.4
v 0.7 2.2 0.2
v -0.6 2 -0.3
v -0.6 2 -0.5
v -0.6 2.2 -0.3
v -0.6 2.2 -0.5
v -0.5 2 0.8
v -0.5 2 0.6
v -0.5 2 0.2
v -0.5 2 0
v -0.5 2 -0.7
v -0.5 2 -0.9
v -0.5 2.2 0.8
v -0.5 2.2 0.6
v -0.5 2.2 0.2
v -0.5 2.2 0
v -0.5 2.2 -0.7
v -0.5 2.2 -0.9
v -0.5 2.4 0.6
v -0.5 2.4 0.4
v -0.5 2.4 -0.7
v -0.5 2.4 -0.9
v -0.5 2.6 0.6
v -0.5 2.6 0.4
v -0.3 2 0.6
v -0.3 2 0.4
v -0.3 2 0.2
v -0.3 2 -0.5
v -0.3 2 -0.7
v -0.3 2.2 0.6
v -0.3 2.2 0.4
v -0.3 2.2 -0.5
v -0.3 2.2 -0.7
v -0.3 2.4 0.6
v -0.3 2.4 0.4
v -0.3 2.4 0.2
v -0.3 2.6 -0.5
v -0.3 2.6 -0.7
v -0.2 2 0.9
v -0.2 2 0.7
v -0.2 2.2 0.9
v -0.2 2.2 0.7
v 0 2 0.4
v 0 2 0.2
v 0 2 -0.1
v 0 2 -0.3
v 0 2.2 0.4
v 0 2.2 0.2
v 0 2.2 -0.1
v 0 2.2 -0.3
v 0.1 2 -0.6
v 0.1 2 -0.8
v 0.1 2.2 -0.6
v 0.1 2.2 -0.8
v 0.5 2 0.5
v 0.5 2 0.3
v 0.5 2 -0.5
v 0.5 2 -0.7
v 0.5 2.2 0.5
v 0.5 2.2 0.3
v 0.5 2.2 -0.5
v 0.5 2.2 -0.7
v 0.5 2.4 -0.3
v 0.5 2.4 -0.5
v 0.5 2.6 -0.3
v 0.5 2.6 -0.5
v 0.7 2 0.9
v 0.7 2 0.7
v 0.7 2 0.5
v 0.7 2 -0.1
v 0.7 2 -0.5
v 0.7 2.2 0.9
v 0.7 2.2 0.7
v 0.7 2.2 0.5
v 0.7 2.2 -0.3
v 0.7 2.2 -0.5
v 0.7 2.4 0.9
v 0.7 2.4 0.7
v 0.7 2.4 -0.1
v 0.7 2.4 -0.3
v 0.7 2.4 -0.5
v 0.7 2.8 0.7
v 0.7 2.8 0.5
v 0.9 2 0.4
v 0.9 2 0.2
v 0.9 2.2 0.4
v 0.9 2.2 0.2
v -0.4 2 0.9
v -0.4 2.2 0.9
v -0.2 2 0.9
v -0.2 2.2 0.9
v 0.3 2 0.9
v 0.3 2.2 0.9
v 0.3 2.4 0.9
v 0.7 2 0.9
v 0.7 2.2 0.9
v 0.7 2.4 0.9
v -0.7 2 0.8
v -0.7 2.2 0.8
v -0.5 2 0.8
v -0.5 2.2 0.8
v 0.1 2 0.7
v 0.1 2.2 0.7
v 0.3 2 0.7
v 0.3 2.2 0.7
v 0.3 2.4 0.7
v 0.3 2.6 0.7
v 0.5 2.4 0.7
v 0.5 2.6 0.7
v 0.5 2.8 0.7
v 0.7 2.4 0.7
v 0.7 2.8 0.7
v -0.9 2 0.6
v -0.9 2.2 0.6
v -0.7 2 0.6
v -0.7 2.2 0.6
v -0.7 2.4 0.6
v -0.7 2.6 0.6
v -0.5 2 0.6
v -0.5 2.2 0.6
v -0.5 2.4 0.6
v -0.5 2.6 0.6
v -0.3 2 0.6
v -0.3 2.2 0.6
v -0.3 2.4 0.6
v -0.2 2 0.4
v -0.2 2.2 0.4
v 0 2 0.4
v 0 2.2 0.4
v 0.7 2 0.4
v 0.7 2.2 0.4
v 0.9 2 0.4
v 0.9 2.2 0.4
v -0.2 2 -0.1
v -0.2 2.2 -0.1
v 0 2 -0.1
v 0 2.2 -0.1
v 0.3 2 -0.1
v 0.3 2.2 -0.1
v 0.3 2.4 -0.1
v 0.5 2 -0.1
v 0.5 2.2 -0.1
v 0.5 2.4 -0.1
v 0.7 2 -0.1
v 0.7 2.4 -0.1
v -0.8 2 -0.3
v -0.8 2.2 -0.3
v -0.6 2 -0.3
v -0.6 2.2 -0.3
v 0.1 2 -0.3
v 0.1 2.2 -0.3
v 0.3 2 -0.3
v 0.3 2.2 -0.3
v 0.3 2.4 -0.3
v 0.3 2.6 -0.3
v 0.5 2.4 -0.3
v 0.5 2.6 -0.3
v -0.5 2 -0.5
v -0.5 2.2 -0.5
v -0.5 2.6 -0.5
v -0.3 2 -0.5
v -0.3 2.2 -0.5
v -0.3 2.6 -0.5
v -0.1 2 -0.6
v -0.1 2.2 -0.6
v 0.1 2 -0.6
v 0.1 2.2 -0.6
v -0.7 2 -0.7
v -0.7 2.2 -0.7
v -0.7 2.4 -0.7
v -0.5 2 -0.7
v -0.5 2.2 -0.7
v -0.5 2.4 -0.7
v -0.4 2 0.7
v -0.4 2.2 0.7
v -0.2 2 0.7
v -0.2 2.2 0.7
v 0.1 2 0.5
v 0.1 2.2 0.5
v 0.3 2 0.5
v 0.3 2.2 0.5
v 0.3 2.6 0.5
v 0.5 2 0.5
v 0.5 2.2 0.5
v 0.5 2.6 0.5
v 0.5 2.8 0.5
v 0.7 2 0.5
v 0.7 2.2 0.5
v 0.7 2.8 0.5
v -0.9 2 0.4
v -0.9 2.2 0.4
v -0.7 2 0.4
v -0.7 2.2 0.4
v -0.7 2.4 0.4
v -0.7 2.6 0.4
v -0.5 2.4 0.4
v -0.5 2.6 0.4
v 0.3 2 0.3
v 0.3 2.2 0.3
v 0.5 2 0.3
v 0.5 2.2 0.3
v -0.7 2.2 0.2
v -0.7 2.4 0.2
v -0.5 2 0.2
v -0.5 2.2 0.2
v -0.3 2 0.2
v -0.3 2.4 0.2
v -0.2 2 0.2
v -0.2 2.2 0.2
v 0 2 0.2
v 0 2.2 0.2
v 0.7 2 0.2
v 0.7 2.2 0.2
v 0.9 2 0.2
v 0.9 2.2 0.2
v -0.7 2 0
v -0.7 2.2 0
v -0.5 2 0
v -0.5 2.2 0
v -0.2 2 -0.3
v -0.2 2.2 -0.3
v 0 2 -0.3
v 0 2.2 -0.3
v -0.8 2 -0.5
v -0.8 2.2 -0.5
v -0.6 2 -0.5
v -0.6 2.2 -0.5
v 0.1 2 -0.5
v 0.1 2.2 -0.5
v 0.3 2 -0.5
v 0.3 2.2 -0.5
v 0.3 2.4 -0.5
v 0.3 2.6 -0.5
v 0.5 2 -0.5
v 0.5 2.2 -0.5
v 0.5 2.4 -0.5
v 0.5 2.6 -0.5
v 0.7 2 -0.5
v 0.7 2.2 -0.5
v 0.7 2.4 -0.5
v -0.5 2 -0.7
v -0.5 2.2 -0.7
v -0.5 2.4 -0.7
v -0.5 2.6 -0.7
v -0.3 2 -0.7
v -0.3 2.2 -0.7
v -0.3 2.6 -0.7
v 0.3 2 -0.7
v 0.3 2.2 -0.7
v 0.5 2 -0.7
v 0.5 2.2 -0.7
v -0.1 2 -0.8
v -0.1 2.2 -0.8
v 0.1 2 -0.8
v 0.1 2.2 -0.8
v -0.7 2 -0.9
v -0.7 2.2 -0.9
v -0.7 2.4 -0.9
v -0.5 2 -0.9
v -0.5 2.2 -0.9
v -0.5 2.4 -0.9
v -0.4 2 0.9
v -0.2 2 0.9
v 0.3 2 0.9
v 0.7 2 0.9
v -0.7 2 0.8
v -0.5 2 0.8
v -0.4 2 0.7
v -0.2 2 0.7
v 0.1 2 0.7
v 0.3 2 0.7
v 0.5 2 0.7
v 0.7 2 0.7
v -0.9 2 0.6
v -0.7 2 0.6
v -0.5 2 0.6
v -0.3 2 0.6
v 0.1 2 0.5
v 0.3 2 0.5
v 0.5 2 0.5
v 0.7 2 0.5
v -0.9 2 0.4
v -0.7 2 0.4
v -0.5 2 0.4
v -0.3 2 0.4
v -0.2 2 0.4
v 0 2 0.4
v 0.7 2 0.4
v 0.9 2 0.4
v 0.3 2 0.3
v 0.5 2 0.3
v -0.5 2 0.2
v -0.3 2 0.2
v -0.2 2 0.2
v 0 2 0.2
v 0.7 2 0.2
v 0.9 2 0.2
v -0.7 2 0
v -0.5 2 0
v -0.2 2 -0.1
v 0 2 -0.1
v 0.3 2 -0.1
v 0.5 2 -0.1
v 0.7 2 -0.1
v -0.8 2 -0.3
v -0.6 2 -0.3
v -0.2 2 -0.3
v 0 2 -0.3
v 0.1 2 -0.3
v 0.3 2 -0.3
v 0.5 2 -0.3
v -0.8 2 -0.5
v -0.6 2 -0.5
v -0.5 2 -0.5
v -0.3 2 -0.5
v 0.1 2 -0.5
v 0.3 2 -0.5
v 0.5 2 -0.5
v 0.7 2 -0.5
v -0.1 2 -0.6
v 0.1 2 -0.6
v -0.7 2 -0.7
v -0.5 2 -0.7
v -0.3 2 -0.7
v 0.3 2 -0.7
v 0.5 2 -0.7
v -0.1 2 -0.8
v 0.1 2 -0.8
v -0.7 2 -0.9
v -0.5 2 -0.9
v -0.4 2.2 0.9
v -0.2 2.2 0.9
v -0.7 2.2 0.8
v -0.5 2.2 0.8
v -0.4 2.2 0.7
v -0.2 2.2 0.7
v 0.1 2.2 0.7
v 0.3 2.2 0.7
v -0.9 2.2 0.6
v -0.7 2.2 0.6
v -0.5 2.2 0.6
v 0.1 2.2 0.5
v 0.3 2.2 0.5
v 0.5 2.2 0.5
v -0.9 2.2 0.4
v -0.7 2.2 0.4
v -0.2 2.2 0.4
v 0 2.2 0.4
v 0.7 2.2 0.4
v 0.9 2.2 0.4
v 0.3 2.2 0.3
v 0.5 2.2 0.3
v -0.7 2.2 0.2
v -0.5 2.2 0.2
v -0.2 2.2 0.2
v 0 2.2 0.2
v 0.7 2.2 0.2
v 0.9 2.2 0.2
v -0.7 2.2 0
v -0.5 2.2 0
v -0.2 2.2 -0.1
v 0 2.2 -0.1
v -0.8 2.2 -0.3
v -0.6 2.2 -0.3
v -0.2 2.2 -0.3
v 0 2.2 -0.3
v 0.1 2.2 -0.3
v 0.3 2.2 -0.3
v -0.8 2.2 -0.5
v -0.6 2.2 -0.5
v 0.1 2.2 -0.5
v 0.3 2.2 -0.5
v 0.5 2.2 -0.5
v -0.1 2.2 -0.6
v 0.1 2.2 -0.6
v 0.3 2.2 -0.7
v 0.5 2.2 -0.7
v -0.1 2.2 -0.8
v 0.1 2.2 -0.8
v 0.3 2.4 0.9
v 0.7 2.4 0.9
v 0.3 2.4 0.7
v 0.5 2.4 0.7
v 0.7 2.4 0.7
v -0.5 2.4 0.6
v -0.3 2.4 0.6
v -0.7 2.4 0.4
v -0.5 2.4 0.4
v -0.3 2.4 0.4
v -0.7 2.4 0.2
v -0.3 2.4 0.2
v 0.3 2.4 -0.1
v 0.5 2.4 -0.1
v 0.7 2.4 -0.1
v 0.3 2.4 -0.3
v 0.5 2.4 -0.3
v 0.7 2.4 -0.3
v 0.5 2.4 -0.5
v 0.7 2.4 -0.5
v -0.7 2.4 -0.7
v -0.5 2.4 -0.7
v -0.7 2.4 -0.9
v -0.5 2.4 -0.9
v 0.3 2.6 0.7
v 0.5 2.6 0.7
v -0.7 2.6 0.6
v -0.5 2.6 0.6
v 0.3 2.6 0.5
v 0.5 2.6 0.5
v -0.7 2.6 0.4
v -0.5 2.6 0.4
v 0.3 2.6 -0.3
v 0.5 2.6 -0.3
v -0.5 2.6 -0.5
v -0.3 2.6 -0.5
v 0.3 2.6 -0.5
v 0.5 2.6 -0.5
v -0.5 2.6 -0.7
v -0.3 2.6 -0.7
v 0.5 2.8 0.7
v 0.7 2.8 0.7
v 0.5 2.8 0.5
v 0.7 2.8 0.5

# faces
f 3/2/1 2/2/1 1/2/1
f 4/2/1 2/2/1 3/2/1
f 7/2/1 6/2/1 5/2/1
f 8/2/1 6/2/1 7/2/1
f 15/2/1 10/2/1 9/2/1
f 16/2/1 10/2/1 15/2/1
f 17/2/1 12/2/1 11/2/1
f 18/2/1 12/2/1 17/2/1
f 19/2/1 12/2/1 18/2/1
f 20/2/1 14/2/1 13/2/1
f 21/2/1 14/2/1 20/2/1
f 22/2/1 17/2/1 16/2/1
f 22/2/1 18/2/1 17/2/1
f 23/2/1 18/2/1 22/2/1
f 24/2/1 18/2/1 23/2/1
f 25/1/1 21/1/1 20/1/1
f 26/1/1 21/1/1 25/1/1
f 27/1/1 23/1/1 22/1/1
f 28/1/1 23/1/1 27/1/1
f 31/2/1 30/2/1 29/2/1
f 32/2/1 30/2/1 31/2/1
f 33/1/1 32/1/1 31/1/1
f 34/1/1 33/1/1 31/1/1
f 35/1/1 33/1/1 34/1/1
f 38/2/1 37/2/1 36/2/1
f 39/2/1 37/2/1 38/2/1
f 44/2/1 41/2/1 40/2/1
f 45/2/1 41/2/1 44/2/1
f 46/2/1 43/2/1 42/2/1
f 47/2/1 43/2/1 46/2/1
f 50/2/1 49/2/1 48/2/1
f 51/2/1 49/2/1 50/2/1
f 56/2/1 53/2/1 52/2/1
f 57/2/1 53/2/1 56/2/1
f 58/2/1 55/2/1 54/2/1
f 59/2/1 55/2/1 58/2/1
f 68/2/1 61/2/1 60/2/1
f 69/2/1 61/2/1 68/2/1
f 70/2/1 63/2/1 62/2/1
f 71/2/1 63/2/1 70/2/1
f 72/3/1 65/3/1 64/3/1
f 73/3/1 65/3/1 72/3/1
f 74/1/1 67/1/1 66/1/1
f 75/1/1 67/1/1 74/1/1
f 76/1/1 69/1/1 68/1/1
f 77/2/1 70/2/1 69/2/1
f 77/1/1 69/1/1 76/1/1
f 78/1/1 73/1/1 72/1/1
f 79/2/1 74/2/1 73/2/1
f 79/1/1 73/1/1 78/1/1
f 80/2/1 74/2/1 79/2/1
f 81/2/1 70/2/1 77/2/1
f 82/2/1 70/2/1 81/2/1
f 83/1/1 80/1/1 79/1/1
f 84/1/1 80/1/1 83/1/1
f 87/1/1 86/1/1 85/1/1
f 88/1/1 86/1/1 87/1/1
f 91/2/1 90/2/1 89/2/1
f 92/2/1 90/2/1 91/2/1
f 93/2/2 94/2/2 95/2/2
f 95/2/2 94/2/2 96/2/2
f 97/2/2 98/2/2 103/2/2
f 103/2/2 98/2/2 104/2/2
f 99/2/2 100/2/2 105/2/2
f 105/2/2 100/2/2 106/2/2
f 101/2/2 102/2/2 107/2/2
f 107/2/2 102/2/2 108/2/2
f 107/1/2 108/1/2 111/1/2
f 111/1/2 108/1/2 112/1/2
f 109/1/2 110/1/2 113/1/2
f 113/1/2 110/1/2 114/1/2
f 115/3/2 116/3/2 120/3/2
f 116/2/2 117/2/2 121/2/2
f 120/3/2 116/3/2 121/3/2
f 118/2/2 119/2/2 122/2/2
f 122/2/2 119/2/2 123/2/2
f 120/1/2 121/1/2 124/1/2
f 121/2/2 117/2/2 125/2/2
f 124/1/2 121/1/2 125/1/2
f 125/2/2 117/2/2 126/2/2
f 122/1/2 123/1/2 127/1/2
f 127/1/2 123/1/2 128/1/2
f 129/2/2 130/2/2 131/2/2
f 131/2/2 130/2/2 132/2/2
f 133/2/2 134/2/2 137/2/2
f 137/2/2 134/2/2 138/2/2
f 135/2/2 136/2/2 139/2/2
f 139/2/2 136/2/2 140/2/2
f 141/2/2 142/2/2 143/2/2
f 143/2/2 142/2/2 144/2/2
f 145/2/2 146/2/2 149/2/2
f 149/2/2 146/2/2 150/2/2
f 147/1/2 148/1/2 151/1/2
f 151/1/2 148/1/2 152/1/2
f 153/1/2 154/1/2 155/1/2
f 155/1/2 154/1/2 156/1/2
f 157/2/2 158/2/2 162/2/2
f 158/3/2 159/3/2 163/3/2
f 162/2/2 158/2/2 163/2/2
f 163/3/2 159/3/2 164/3/2
f 160/2/2 161/2/2 165/2/2
f 165/2/2 161/2/2 166/2/2
f 163/1/2 164/1/2 167/1/2
f 162/1/2 163/1/2 167/1/2
f 167/1/2 164/1/2 168/1/2
f 160/2/2 165/2/2 169/2/2
f 165/1/2 166/1/2 170/1/2
f 169/2/2 165/2/2 170/2/2
f 170/1/2 166/1/2 171/1/2
f 168/1/2 164/1/2 172/1/2
f 172/1/2 164/1/2 173/1/2
f 174/2/2 175/2/2 176/2/2
f 176/2/2 175/2/2 177/2/2
f 180/2/3 179/2/3 178/2/3
f 181/2/3 179/2/3 180/2/3
f 185/2/3 183/2/3 182/2/3
f 186/1/3 184/1/3 183/1/3
f 186/2/3 183/2/3 185/2/3
f 187/1/3 184/1/3 186/1/3
f 190/2/3 189/2/3 188/2/3
f 191/2/3 189/2/3 190/2/3
f 194/2/3 193/2/3 192/2/3
f 195/2/3 193/2/3 194/2/3
f 198/2/3 197/2/3 196/2/3
f 199/2/3 197/2/3 198/2/3
f 201/1/3 199/1/3 198/1/3
f 201/1/3 200/1/3 199/1/3
f 202/1/3 200/1/3 201/1/3
f 205/2/3 204/2/3 203/2/3
f 206/2/3 204/2/3 205/2/3
f 210/2/3 207/2/3 206/2/3
f 211/1/3 208/1/3 207/1/3
f 211/2/3 207/2/3 210/2/3
f 212/1/3 208/1/3 211/1/3
f 213/3/3 210/3/3 209/3/3
f 214/1/3 211/1/3 210/1/3
f 214/3/3 210/3/3 213/3/3
f 215/1/3 211/1/3 214/1/3
f 218/2/3 217/2/3 216/2/3
f 219/2/3 217/2/3 218/2/3
f 222/2/3 221/2/3 220/2/3
f 223/2/3 221/2/3 222/2/3
f 226/2/3 225/2/3 224/2/3
f 227/2/3 225/2/3 226/2/3
f 231/3/3 229/3/3 228/3/3
f 232/1/3 230/1/3 229/1/3
f 232/3/3 229/3/3 231/3/3
f 233/1/3 230/1/3 232/1/3
f 234/2/3 232/2/3 231/2/3
f 234/2/3 233/2/3 232/2/3
f 235/2/3 233/2/3 234/2/3
f 238/2/3 237/2/3 236/2/3
f 239/2/3 237/2/3 238/2/3
f 242/2/3 241/2/3 240/2/3
f 243/2/3 241/2/3 242/2/3
f 246/1/3 245/1/3 244/1/3
f 247/1/3 245/1/3 246/1/3
f 251/2/3 249/2/3 248/2/3
f 252/1/3 250/1/3 249/1/3
f 252/2/3 249/2/3 251/2/3
f 253/1/3 250/1/3 252/1/3
f 256/2/3 255/2/3 254/2/3
f 257/2/3 255/2/3 256/2/3
f 261/2/3 259/2/3 258/2/3
f 262/1/3 260/1/3 259/1/3
f 262/2/3 259/2/3 261/2/3
f 263/1/3 260/1/3 262/1/3
f 264/2/4 265/2/4 266/2/4
f 266/2/4 265/2/4 267/2/4
f 268/2/4 269/2/4 270/2/4
f 270/2/4 269/2/4 271/2/4
f 271/2/4 272/2/4 274/2/4
f 274/2/4 272/2/4 275/2/4
f 273/3/4 274/3/4 277/3/4
f 275/1/4 276/1/4 278/1/4
f 277/3/4 274/3/4 278/3/4
f 274/1/4 275/1/4 278/1/4
f 278/1/4 276/1/4 279/1/4
f 280/2/4 281/2/4 282/2/4
f 282/2/4 281/2/4 283/2/4
f 284/1/4 285/1/4 286/1/4
f 286/1/4 285/1/4 287/1/4
f 288/2/4 289/2/4 290/2/4
f 290/2/4 289/2/4 291/2/4
f 292/2/4 293/2/4 295/2/4
f 294/2/4 295/2/4 296/2/4
f 295/2/4 293/2/4 297/2/4
f 296/2/4 295/2/4 297/2/4
f 298/2/4 299/2/4 300/2/4
f 300/2/4 299/2/4 301/2/4
f 302/2/4 303/2/4 304/2/4
f 304/2/4 303/2/4 305/2/4
f 306/2/4 307/2/4 308/2/4
f 308/2/4 307/2/4 309/2/4
f 310/2/4 311/2/4 312/2/4
f 312/2/4 311/2/4 313/2/4
f 314/2/4 315/2/4 316/2/4
f 316/2/4 315/2/4 317/2/4
f 318/2/4 319/2/4 320/2/4
f 320/2/4 319/2/4 321/2/4
f 321/2/4 322/2/4 325/2/4
f 322/1/4 323/1/4 326/1/4
f 325/2/4 322/2/4 326/2/4
f 326/1/4 323/1/4 327/1/4
f 324/2/4 325/2/4 328/2/4
f 325/1/4 326/1/4 329/1/4
f 328/2/4 325/2/4 329/2/4
f 329/1/4 326/1/4 330/1/4
f 331/2/4 332/2/4 335/2/4
f 333/1/4 334/1/4 336/1/4
f 335/2/4 332/2/4 336/2/4
f 332/1/4 333/1/4 336/1/4
f 336/1/4 334/1/4 337/1/4
f 338/1/4 339/1/4 340/1/4
f 340/1/4 339/1/4 341/1/4
f 342/2/4 343/2/4 344/2/4
f 344/2/4 343/2/4 345/2/4
f 346/2/4 347/2/4 349/2/4
f 347/1/4 348/1/4 350/1/4
f 349/2/4 347/2/4 350/2/4
f 350/1/4 348/1/4 351/1/4
f 358/2/5 353/2/5 352/2/5
f 359/2/5 353/2/5 358/2/5
f 361/2/5 355/2/5 354/2/5
f 362/2/5 355/2/5 361/2/5
f 363/2/5 355/2/5 362/2/5
f 365/2/5 357/2/5 356/2/5
f 366/2/5 357/2/5 365/2/5
f 368/2/5 361/2/5 360/2/5
f 368/2/5 362/2/5 361/2/5
f 369/2/5 362/2/5 368/2/5
f 370/3/5 363/3/5 362/3/5
f 370/2/5 362/2/5 369/2/5
f 371/3/5 363/3/5 370/3/5
f 372/2/5 366/2/5 365/2/5
f 372/2/5 365/2/5 364/2/5
f 373/2/5 366/2/5 372/2/5
f 374/3/5 367/3/5 366/3/5
f 374/2/5 366/2/5 373/2/5
f 375/3/5 367/3/5 374/3/5
f 380/2/5 370/2/5 369/2/5
f 381/2/5 370/2/5 380/2/5
f 382/2/5 375/2/5 374/2/5
f 382/2/5 374/2/5 373/2/5
f 383/2/5 375/2/5 382/2/5
f 384/2/5 377/2/5 376/2/5
f 385/2/5 377/2/5 384/2/5
f 386/2/5 379/2/5 378/2/5
f 387/2/5 379/2/5 386/2/5
f 388/2/5 382/2/5 373/2/5
f 389/2/5 382/2/5 388/2/5
f 397/2/5 391/2/5 390/2/5
f 398/2/5 391/2/5 397/2/5
f 400/3/5 393/3/5 392/3/5
f 401/2/5 394/2/5 393/2/5
f 401/3/5 393/3/5 400/3/5
f 402/2/5 396/2/5 395/2/5
f 403/2/5 396/2/5 402/2/5
f 406/2/5 401/2/5 400/2/5
f 406/2/5 400/2/5 399/2/5
f 407/2/5 401/2/5 406/2/5
f 408/2/5 394/2/5 401/2/5
f 408/2/5 401/2/5 407/2/5
f 409/2/5 394/2/5 408/2/5
f 413/2/5 405/2/5 404/2/5
f 414/2/5 405/2/5 413/2/5
f 415/1/5 408/1/5 407/1/5
f 416/1/5 408/1/5 415/1/5
f 417/2/5 411/2/5 410/2/5
f 418/2/5 411/2/5 417/2/5
f 419/2/5 413/2/5 412/2/5
f 420/2/5 413/2/5 419/2/5
f 421/2/6 422/2/6 425/2/6
f 425/2/6 422/2/6 426/2/6
f 423/2/6 424/2/6 430/2/6
f 430/2/6 424/2/6 431/2/6
f 427/2/6 428/2/6 432/2/6
f 432/2/6 428/2/6 433/2/6
f 429/2/6 430/2/6 435/2/6
f 435/2/6 430/2/6 436/2/6
f 433/2/6 434/2/6 441/2/6
f 441/2/6 434/2/6 442/2/6
f 437/2/6 438/2/6 445/2/6
f 445/2/6 438/2/6 446/2/6
f 439/2/6 440/2/6 447/2/6
f 447/2/6 440/2/6 448/2/6
f 443/2/6 444/2/6 449/2/6
f 449/2/6 444/2/6 450/2/6
f 451/2/6 452/2/6 455/2/6
f 455/2/6 452/2/6 456/2/6
f 453/2/6 454/2/6 459/2/6
f 459/2/6 454/2/6 460/2/6
f 457/2/6 458/2/6 461/2/6
f 461/2/6 458/2/6 462/2/6
f 462/1/6 463/1/6 466/1/6
f 466/1/6 463/1/6 467/1/6
f 464/2/6 465/2/6 468/2/6
f 468/2/6 465/2/6 469/2/6
f 470/1/6 471/1/6 472/1/6
f 472/1/6 471/1/6 473/1/6
f 473/1/6 471/1/6 474/1/6
f 475/1/6 476/1/6 478/1/6
f 478/1/6 476/1/6 479/1/6
f 477/2/6 478/2/6 480/2/6
f 478/2/6 479/2/6 480/2/6
f 480/2/6 479/2/6 481/2/6
f 482/1/6 483/1/6 485/1/6
f 483/2/6 484/2/6 486/2/6
f 485/1/6 483/1/6 486/1/6
f 486/2/6 484/2/6 487/2/6
f 486/1/6 487/1/6 488/1/6
f 488/1/6 487/1/6 489/1/6
f 490/1/6 491/1/6 492/1/6
f 492/1/6 491/1/6 493/1/6
f 494/2/6 495/2/6 498/2/6
f 498/2/6 495/2/6 499/2/6
f 496/1/6 497/1/6 500/1/6
f 500/1/6 497/1/6 501/1/6
f 502/1/6 503/1/6 506/1/6
f 506/1/6 503/1/6 507/1/6
f 504/1/6 505/1/6 508/1/6
f 508/1/6 505/1/6 509/1/6
f 510/1/6 511/1/6 512/1/6
f 512/1/6 511/1/6 513/1/6
